<svg version="1.2" xmlns="http://www.w3.org/2000/svg" viewBox="0 0 1462 270" width="500" height="92">
	<title>template</title>
	<defs>
		<linearGradient id="g1" x2="1" gradientUnits="userSpaceOnUse" gradientTransform="matrix(-133.663,0,0,-120.558,323.798,241.987)">
			<stop offset="0" stop-color="#41dafa"/>
			<stop offset=".999" stop-color="#2963d7"/>
		</linearGradient>
		<linearGradient id="g2" x2="1" gradientUnits="userSpaceOnUse" gradientTransform="matrix(141.525,0,0,119.685,39,29.699)">
			<stop offset="0" stop-color="#41dafa"/>
			<stop offset=".999" stop-color="#2963d7"/>
		</linearGradient>
	</defs>
	<style>
		tspan { white-space:pre } 
		.t0 { font-size: 136px;fill: #ffffff;font-weight: 600;font-family: "EncodeSans-SemiBold", "Encode Sans" } 
		.s1 { opacity: .6;fill: url(#g1) } 
		.s2 { fill: #2543af } 
		.s3 { opacity: .6;fill: url(#g2) } 
		.s4 { fill: #2f2f75 } 
	</style>
	<text id="YourPrompts." style="transform: matrix(1.273,0,0,1.273,907.546,197.608)" >
		<tspan x="-430" y="0" class="t0">Y</tspan><tspan  y="0" class="t0">o</tspan><tspan  y="0" class="t0">u</tspan><tspan  y="0" class="t0">r</tspan><tspan  y="0" class="t0">P</tspan><tspan  y="0" class="t0">r</tspan><tspan  y="0" class="t0">o</tspan><tspan  y="0" class="t0">m</tspan><tspan  y="0" class="t0">p</tspan><tspan  y="0" class="t0">t</tspan><tspan  y="0" class="t0">s</tspan><tspan  y="0" class="t0">.
</tspan>
	</text>
	<g id="&lt;Group&gt;">
		<path id="&lt;Path&gt;" class="s1" d="m218.1 121.4l-28 56.8 31.5 63.8h68.1l34.1-60.3-35.8-60.3z"/>
		<g id="&lt;Group&gt;" style="opacity: .3">
			<path id="&lt;Path&gt;" class="s2" d="m289.7 242c-0.1 0-1.1-1.6-2.7-4.6-1.8-3.4-4.2-7.7-7-12.9-5.8-10.9-13.6-26-22.3-42.8-0.5-1-1-2.1-1.5-3.1l-0.3-0.4 0.3-0.4c8.6-15.9 16.5-30 22.2-40.2 2.8-4.8 5.1-8.8 6.9-11.9 1.6-2.8 2.6-4.3 2.7-4.3 0.1 0.1-0.7 1.7-2.1 4.6-1.7 3.2-3.8 7.3-6.4 12.2-5.4 10.4-13.1 24.6-21.7 40.5v-0.9c0.5 1 1 2 1.6 3.1 8.6 16.8 16.3 32 21.8 43 2.6 5.3 4.7 9.8 6.4 13.2 1.5 3.1 2.2 4.8 2.1 4.9z"/>
		</g>
		<g id="&lt;Group&gt;" style="opacity: .3">
			<path id="&lt;Path&gt;" class="s2" d="m223.6 179.1c-18.5 0-33.5-0.4-33.5-0.9 0-0.5 15-0.9 33.5-0.9 18.4 0 33.4 0.4 33.4 0.9 0 0.5-15 0.9-33.4 0.9z"/>
		</g>
		<path id="&lt;Path&gt;" class="s3" d="m73.9 29.7l-34.9 62 34.9 57.7h70.8l35.8-59.9-34.9-59.8z"/>
		<g id="&lt;Group&gt;" style="opacity: .3">
			<path id="&lt;Path&gt;" class="s2" d="m73.9 149.4c-0.1-0.1 0.8-1.7 2.5-4.5 1.9-3.1 4.3-7.1 7.3-11.9 6.2-10 14.9-23.8 24.6-38.9q0.3-0.6 0.7-1.1l0.3-0.4h0.5c17.6 0 33.6 0.1 45.1 0.2 5.5 0.1 10.1 0.2 13.6 0.3 3.3 0.1 5 0.2 5 0.4 0 0.1-1.7 0.2-5 0.3-3.5 0.1-8.1 0.2-13.6 0.3-11.5 0.2-27.5 0.3-45.1 0.3l0.7-0.4q-0.3 0.5-0.7 1.1c-9.7 15.1-18.5 28.8-25 38.6-3.2 4.7-5.8 8.5-7.8 11.6-1.9 2.7-2.9 4.2-3.1 4.1z"/>
		</g>
		<g id="&lt;Group&gt;" style="opacity: .3">
			<path id="&lt;Path&gt;" class="s2" d="m109.8 93.5c-0.5 0.2-8.9-13.9-18.7-31.5-9.9-17.6-17.6-32.1-17.2-32.3 0.5-0.2 8.9 13.8 18.8 31.4 9.8 17.6 17.5 32.1 17.1 32.4z"/>
		</g>
		<g id="&lt;Group&gt;">
			<g id="&lt;Group&gt;">
				<g id="&lt;Group&gt;">
					<path id="&lt;Path&gt;" class="s4" d="m273.3 99.3c0 0-0.7-0.9-1.8-2.7q-1.9-3.1-4.6-7.7c-3.8-6.7-9.2-16-15.2-26.9l0.7 0.5c-4.5 0-9.4 0-14.4 0-15.8 0-30.2-0.1-40.6-0.3q-7.4-0.1-12.4-0.3c-2.9-0.1-4.5-0.2-4.5-0.3 0-0.1 1.6-0.3 4.5-0.4q5-0.1 12.4-0.3c10.4-0.1 24.8-0.2 40.6-0.2 5 0 9.9 0 14.4 0h0.6l0.2 0.5c6 10.8 11.1 20.3 14.7 27.1q2.5 4.8 4.1 8c1 1.9 1.4 2.9 1.3 3z"/>
				</g>
			</g>
		</g>
		<g id="&lt;Group&gt;">
			<g id="&lt;Group&gt;">
				<g id="&lt;Group&gt;">
					<path id="&lt;Path&gt;" class="s4" d="m190.1 209.5c0 0.1-1.7 0.3-4.8 0.4-3.4 0-7.8 0.1-13.1 0.3-11.1 0.1-26.3 0.2-43.2 0.2-6.8 0-13.3 0-19.2 0h-0.6l-0.2-0.5c-5.9-10.7-10.8-19.9-14.3-26.5q-2.4-4.6-4-7.8c-0.9-1.8-1.3-2.8-1.2-2.8 0.1-0.1 0.7 0.8 1.7 2.6q1.8 3 4.5 7.5c3.7 6.4 8.9 15.5 14.8 26.2l-0.7-0.5c5.9 0 12.4 0 19.2 0 16.9 0 32.1 0.1 43.2 0.3 5.3 0.1 9.7 0.2 13.1 0.3 3.1 0.1 4.8 0.2 4.8 0.3z"/>
				</g>
			</g>
		</g>
	</g>
</svg>